<?xml version="1.0" standalone="no"?>
<!DOCTYPE svg PUBLIC "-//W3C//DTD SVG 20010904//EN"
 "http://www.w3.org/TR/2001/REC-SVG-20010904/DTD/svg10.dtd">
<svg version="1.0" xmlns="http://www.w3.org/2000/svg"
 width="512.000000pt" height="512.000000pt" viewBox="0 0 512.000000 512.000000"
 preserveAspectRatio="xMidYMid meet">

<g transform="translate(0.000000,512.000000) scale(0.100000,-0.100000)"
fill="#000000" stroke="none">
<path d="M1085 4845 c-329 -71 -584 -319 -677 -655 l-23 -85 0 -835 c0 -923
-2 -893 65 -1054 100 -239 301 -425 550 -508 l95 -32 283 -4 282 -4 0 -510 c0
-288 4 -508 9 -506 5 2 266 231 580 511 l572 507 569 0 c468 0 581 3 640 15
338 71 615 350 684 687 24 116 24 1670 0 1786 -32 159 -106 299 -223 424 -122
130 -270 217 -444 258 -80 19 -121 20 -1492 19 -1123 0 -1422 -3 -1470 -14z
m543 -1300 c181 -99 221 -336 81 -489 -68 -74 -130 -101 -234 -100 -67 0 -89
5 -132 27 -116 60 -177 160 -177 287 0 128 66 228 188 286 44 22 62 25 136 22
71 -3 94 -9 138 -33z m1078 7 c91 -47 144 -111 169 -210 39 -143 -35 -294
-175 -361 -115 -54 -262 -27 -354 65 -163 163 -98 438 121 520 56 21 187 13
239 -14z m1092 -2 c116 -58 176 -154 176 -280 0 -130 -66 -234 -183 -289 -76
-35 -182 -36 -258 -2 -63 28 -136 103 -165 169 -29 65 -29 170 1 236 58 132
154 195 297 196 59 0 81 -5 132 -30z"/>
</g>
</svg>
