<?xml version="1.0" standalone="no"?>
<!DOCTYPE svg PUBLIC "-//W3C//DTD SVG 20010904//EN"
 "http://www.w3.org/TR/2001/REC-SVG-20010904/DTD/svg10.dtd">
<svg version="1.0" xmlns="http://www.w3.org/2000/svg"
 width="550.000000pt" height="550.000000pt" viewBox="0 0 550.000000 550.000000"
 preserveAspectRatio="xMidYMid meet">

<g transform="translate(0.000000,550.000000) scale(0.100000,-0.100000)"
fill="#000000" stroke="none">
<path d="M1450 5253 c-63 -19 -120 -40 -126 -46 -6 -7 -26 -109 -44 -227 -17
-118 -33 -216 -33 -216 -19 -17 -180 -114 -189 -114 -7 0 -107 27 -222 60
-115 33 -210 59 -211 57 -1 -1 -35 -40 -75 -87 -41 -47 -80 -93 -88 -102 -13
-16 -5 -39 77 -224 l92 -207 -43 -94 c-23 -52 -47 -98 -52 -101 -6 -4 -105
-36 -221 -72 l-210 -65 -17 -115 c-9 -63 -17 -125 -17 -136 -1 -17 34 -44 162
-129 89 -58 173 -115 187 -124 22 -16 27 -32 41 -126 l16 -108 -143 -168 c-79
-93 -144 -175 -144 -183 0 -7 25 -66 55 -130 l54 -116 225 0 224 0 71 -82 c39
-45 71 -91 71 -102 0 -12 -12 -109 -26 -218 -15 -108 -24 -203 -21 -210 3 -8
54 -46 114 -85 l110 -70 187 118 c103 66 192 119 198 119 18 0 193 -52 204
-61 6 -5 53 -99 104 -209 l93 -200 137 0 137 0 93 200 c52 110 99 204 104 209
11 9 187 61 205 61 5 0 92 -52 193 -116 100 -63 190 -113 199 -111 8 2 61 33
117 68 91 58 101 67 102 94 0 17 -11 111 -25 209 -14 99 -25 189 -25 200 0 12
32 58 71 104 l72 82 224 0 224 0 54 116 c30 64 55 123 55 131 0 7 -63 88 -140
178 -90 105 -140 171 -140 186 0 12 5 63 11 112 l12 90 188 124 c216 142 198
111 171 288 l-17 110 -212 65 c-117 36 -216 70 -221 75 -5 6 -28 51 -51 101
l-41 92 90 201 c49 111 90 205 90 210 0 6 -112 141 -169 203 -4 4 -101 -19
-216 -52 -116 -33 -215 -60 -222 -60 -6 0 -52 26 -101 57 l-89 58 -34 224 -34
224 -130 38 c-72 21 -131 39 -132 39 -1 0 -69 -76 -152 -170 l-152 -170 -109
0 -109 0 -148 169 c-81 93 -152 169 -158 169 -5 0 -62 -16 -125 -35z m752
-1156 c104 -33 196 -87 273 -159 160 -149 235 -319 235 -533 0 -205 -66 -361
-215 -510 -73 -74 -106 -99 -175 -132 -141 -69 -282 -94 -423 -74 -169 24
-297 89 -424 216 -66 67 -90 100 -127 176 -57 118 -76 197 -76 325 0 201 66
360 210 505 156 158 320 223 540 215 75 -3 127 -12 182 -29z"/>
<path d="M4113 2679 c-16 -35 -58 -128 -93 -206 l-64 -143 -94 -36 -94 -36
-202 86 c-110 47 -204 86 -208 86 -8 0 -165 -161 -186 -191 -12 -17 -2 -40 88
-218 l101 -200 -27 -88 c-15 -48 -32 -93 -38 -100 -6 -6 -92 -54 -191 -107
-98 -53 -184 -101 -189 -106 -13 -13 24 -280 39 -286 6 -3 105 -24 220 -47
l210 -43 58 -85 57 -84 -40 -220 c-22 -120 -37 -222 -32 -226 10 -9 233 -139
238 -139 3 0 81 64 175 142 l171 143 51 -3 c29 -1 75 -5 103 -8 l51 -5 147
-169 147 -169 52 20 c29 12 89 35 135 52 l82 32 -6 225 -6 225 68 74 69 73
160 9 c88 4 190 8 226 9 l65 0 42 134 c23 74 42 136 42 139 0 3 -80 66 -179
141 l-178 137 -12 82 c-6 45 -11 91 -11 103 0 11 57 99 127 195 69 96 126 179
126 185 0 14 -152 234 -161 234 -4 0 -101 -25 -217 -54 l-210 -54 -89 51 -89
52 -28 100 c-15 55 -41 152 -59 216 l-32 117 -76 6 c-43 4 -107 9 -143 13
l-66 5 -30 -63z m229 -897 c129 -63 201 -179 201 -322 0 -143 -72 -259 -201
-322 -61 -30 -74 -33 -162 -33 -85 0 -101 3 -153 29 -71 36 -140 108 -175 184
-22 48 -27 71 -27 142 0 71 5 94 27 141 66 142 191 221 343 217 68 -3 91 -8
147 -36z"/>
</g>
</svg>
