<?xml version="1.0" standalone="no"?>
<!DOCTYPE svg PUBLIC "-//W3C//DTD SVG 20010904//EN"
 "http://www.w3.org/TR/2001/REC-SVG-20010904/DTD/svg10.dtd">
<svg version="1.0" xmlns="http://www.w3.org/2000/svg"
 width="320.000000pt" height="320.000000pt" viewBox="0 0 320.000000 320.000000"
 preserveAspectRatio="xMidYMid meet">

<g transform="translate(0.000000,320.000000) scale(0.100000,-0.100000)"
fill="#000000" stroke="none">
<path d="M1194 2449 c-27 -18 -86 -68 -132 -113 l-83 -80 -42 48 c-51 61 -152
136 -181 136 -12 0 -27 -5 -34 -12 -19 -19 -13 -124 12 -222 l23 -89 -96 -96
c-121 -121 -164 -197 -163 -293 0 -79 29 -145 85 -193 41 -35 117 -65 167 -65
53 0 127 30 172 70 l45 39 29 -30 c50 -53 100 -73 179 -73 83 0 132 21 187 82
107 119 85 270 -62 426 l-67 71 29 90 c91 287 68 389 -68 304z"/>
<path d="M1928 2458 c-18 -18 -20 -29 -15 -97 2 -42 19 -125 36 -186 l32 -110
-63 -66 c-95 -101 -130 -164 -136 -249 -6 -89 15 -147 74 -206 44 -44 116 -74
179 -74 52 0 121 29 168 70 l44 39 29 -30 c50 -53 100 -73 179 -74 59 0 78 5
123 30 84 46 132 129 132 229 0 81 -43 160 -148 269 l-89 92 34 105 c57 178
55 250 -6 250 -35 0 -83 -32 -184 -123 l-78 -70 -77 75 c-139 134 -195 165
-234 126z"/>
<path d="M2585 1235 c-98 -61 -320 -143 -507 -189 -257 -62 -578 -80 -783 -43
-229 42 -442 110 -617 198 -104 52 -135 59 -145 33 -22 -58 173 -247 347 -334
141 -71 265 -101 495 -120 329 -27 531 -1 810 104 212 80 346 166 442 284 70
86 47 122 -42 67z"/>
</g>
</svg>
