<?xml version="1.0" standalone="no"?>
<!DOCTYPE svg PUBLIC "-//W3C//DTD SVG 20010904//EN"
 "http://www.w3.org/TR/2001/REC-SVG-20010904/DTD/svg10.dtd">
<svg version="1.0" xmlns="http://www.w3.org/2000/svg"
 width="720.000000pt" height="480.000000pt" viewBox="0 0 720.000000 480.000000"
 preserveAspectRatio="xMidYMid meet">

<g transform="translate(0.000000,480.000000) scale(0.100000,-0.100000)"
fill="#000000" stroke="none">
<path d="M3433 4675 c-480 -87 -841 -505 -870 -1007 l-6 -106 -39 -18 c-51
-23 -114 -92 -127 -140 -8 -29 -5 -83 14 -241 13 -111 29 -213 36 -225 39 -77
135 -128 239 -128 59 0 59 0 55 28 -3 15 -23 185 -46 377 -33 280 -40 370 -36
450 21 361 233 685 552 841 144 70 223 87 400 87 123 0 164 -4 230 -22 340
-93 608 -372 696 -726 37 -149 35 -252 -10 -628 -23 -187 -44 -344 -48 -350
-4 -7 -65 -92 -136 -189 l-129 -178 -43 0 c-24 0 -51 -3 -60 -6 -14 -6 -207
-230 -283 -328 -43 -57 -22 -149 42 -180 41 -19 66 -20 102 -4 30 14 290 318
306 358 5 14 7 42 4 62 -6 36 0 47 130 223 110 150 140 185 159 185 70 0 171
64 204 128 7 12 23 114 36 225 19 158 22 212 14 241 -13 48 -76 117 -127 140
l-39 18 -6 106 c-26 444 -312 829 -722 969 -150 51 -339 66 -492 38z"/>
<path d="M3415 4393 c-166 -23 -317 -110 -381 -219 -20 -34 -31 -43 -63 -48
-85 -13 -136 -91 -173 -257 -20 -93 -22 -132 -23 -364 0 -230 3 -275 24 -390
30 -171 90 -350 149 -450 59 -101 220 -264 312 -318 36 -21 101 -50 145 -64
69 -23 97 -27 205 -28 103 0 138 4 197 23 72 22 74 24 158 125 92 110 129 137
186 137 34 0 40 5 77 63 116 177 162 358 182 719 12 205 1 468 -24 588 -24
115 -72 184 -136 197 -14 2 -36 20 -50 39 -61 89 -197 177 -325 209 -141 35
-353 53 -460 38z"/>
<path d="M2440 1799 c-256 -92 -472 -172 -481 -177 -28 -18 -107 -415 -224
-1122 -30 -184 -57 -349 -60 -365 l-5 -30 1935 0 1935 0 -5 30 c-3 17 -30 181
-60 365 -103 625 -193 1090 -216 1115 -14 15 -953 353 -961 346 -3 -3 -81
-262 -173 -576 -201 -688 -216 -738 -220 -733 -2 2 -44 212 -95 468 l-91 465
86 189 c47 104 85 191 85 193 0 1 -128 3 -285 3 -157 0 -285 -2 -285 -4 0 -2
38 -88 85 -192 l86 -189 -92 -465 c-50 -256 -92 -466 -94 -468 -4 -5 -19 46
-220 733 -92 314 -170 573 -174 576 -3 3 -215 -69 -471 -162z"/>
</g>
</svg>
