<?xml version="1.0" standalone="no"?>
<!DOCTYPE svg PUBLIC "-//W3C//DTD SVG 20010904//EN"
 "http://www.w3.org/TR/2001/REC-SVG-20010904/DTD/svg10.dtd">
<svg version="1.0" xmlns="http://www.w3.org/2000/svg"
 width="1024.000000pt" height="1024.000000pt" viewBox="0 0 1024.000000 1024.000000"
 preserveAspectRatio="xMidYMid meet">

<g transform="translate(0.000000,1024.000000) scale(0.100000,-0.100000)"
fill="#000000" stroke="none">
<path d="M2648 7705 c-1298 -433 -2361 -793 -2378 -805 -31 -22 -62 -73 -74
-123 -15 -62 34 -161 95 -193 26 -13 491 -174 989 -341 58 -20 107 -37 109
-39 2 -2 -16 -25 -39 -51 -125 -142 -253 -441 -318 -743 -23 -104 -57 -332
-67 -451 l-7 -75 -47 -26 c-67 -38 -156 -136 -191 -209 -40 -86 -53 -158 -47
-264 10 -181 86 -301 270 -420 14 -9 14 -23 -4 -135 -66 -426 -214 -817 -435
-1150 -87 -131 -168 -230 -328 -400 -75 -80 -139 -156 -142 -168 -5 -18 0 -31
22 -53 69 -68 447 -270 607 -324 94 -31 148 -32 230 -2 182 66 382 266 497
497 101 202 150 436 150 717 0 273 -33 682 -78 958 l-18 110 66 66 c73 73 112
138 135 224 48 188 -25 379 -194 507 l-34 26 12 113 c17 165 56 379 89 494 94
324 218 499 472 669 97 65 389 212 560 281 63 26 135 58 161 70 52 27 435 179
754 300 121 46 258 100 305 120 181 77 759 292 1055 391 207 69 267 70 349 2
97 -80 113 -227 34 -323 -39 -47 -57 -55 -279 -131 -347 -118 -958 -353 -1534
-589 -143 -58 -315 -126 -383 -151 -244 -88 -558 -223 -545 -234 4 -4 139 -51
298 -103 160 -52 727 -239 1260 -415 534 -176 983 -323 999 -326 22 -5 561
171 2400 784 2148 716 2376 794 2406 823 41 39 60 84 60 137 0 65 -44 136
-104 167 -15 8 -1080 365 -2365 794 -1778 593 -2347 779 -2381 778 -32 0 -747
-235 -2392 -784z"/>
<path d="M8060 5460 c-30 -10 -687 -229 -1460 -485 -1519 -505 -1474 -492
-1637 -474 -56 6 -400 117 -1494 483 -781 262 -1424 476 -1429 476 -12 0 -48
-143 -59 -235 -5 -44 -12 -132 -16 -196 l-6 -116 69 -50 c131 -96 227 -242
273 -418 16 -60 21 -112 22 -210 0 -117 -2 -138 -27 -210 -31 -89 -78 -172
-145 -254 l-45 -55 85 -79 c267 -252 774 -475 1364 -602 487 -104 931 -149
1490 -148 628 0 1150 60 1658 189 786 200 1283 510 1414 881 l28 78 3 723 c3
821 14 737 -88 702z"/>
</g>
</svg>
